<svg aria-hidden="true" style="position: absolute; width: 0; height: 0; overflow: hidden;" version="1.1" xmlns="http://www.w3.org/2000/svg" xmlns:xlink="http://www.w3.org/1999/xlink">
<defs>
<symbol id="icon-Vector-1" viewBox="0 0 126 32">
<path fill="#f2c94c" style="fill: var(--color1, #f2c94c)" d="M0 32h28.466v-32h-28.466v32zM22.987 12.921h-6.015v-6.762h6.015v6.762zM5.478 6.159h6.018v12.92h11.491v6.762h-17.509v-19.682zM47.003 0c-2.815 0-5.567 0.938-7.907 2.696s-4.165 4.257-5.242 7.181c-1.077 2.924-1.359 6.141-0.81 9.244s1.905 5.955 3.895 8.192c1.991 2.238 4.527 3.762 7.288 4.379s5.623 0.301 8.224-0.91c2.601-1.211 4.824-3.262 6.388-5.893s2.399-5.725 2.399-8.889c-0.004-4.242-1.505-8.309-4.174-11.308s-6.286-4.687-10.059-4.692zM47.003 25.841c-1.731 0-3.424-0.577-4.864-1.659s-2.562-2.618-3.224-4.416c-0.663-1.798-0.836-3.777-0.498-5.686s1.172-3.662 2.396-5.039c1.224-1.376 2.784-2.313 4.482-2.693s3.458-0.185 5.058 0.56c1.6 0.745 2.967 2.006 3.929 3.624s1.475 3.521 1.475 5.467c-0.004 2.609-0.927 5.11-2.568 6.954s-3.866 2.883-6.186 2.887zM112.168 0c-2.815-0-5.567 0.938-7.908 2.696s-4.165 4.257-5.242 7.18c-1.078 2.924-1.359 6.141-0.81 9.244s1.905 5.955 3.895 8.193 4.526 3.762 7.288 4.379c2.76 0.617 5.622 0.301 8.223-0.91s4.823-3.262 6.387-5.893c1.565-2.631 2.399-5.725 2.399-8.889-0.005-4.242-1.505-8.308-4.173-11.308s-6.286-4.687-10.059-4.692zM112.168 25.841c-1.731 0-3.423-0.577-4.864-1.658-1.439-1.081-2.562-2.618-3.224-4.416s-0.837-3.777-0.499-5.686c0.338-1.909 1.172-3.662 2.396-5.039s2.784-2.314 4.482-2.694c1.698-0.38 3.458-0.185 5.057 0.56 1.601 0.745 2.968 2.006 3.93 3.624 0.961 1.618 1.474 3.521 1.474 5.467-0.003 2.608-0.926 5.109-2.568 6.954-1.64 1.845-3.864 2.883-6.185 2.887zM79.585 0c-2.815 0-5.567 0.938-7.907 2.696s-4.165 4.257-5.242 7.181c-1.077 2.924-1.359 6.141-0.81 9.244s1.905 5.955 3.895 8.192c1.99 2.238 4.527 3.762 7.288 4.379s5.622 0.301 8.223-0.91c2.601-1.211 4.824-3.262 6.388-5.893s2.398-5.725 2.398-8.889c-0.004-4.242-1.505-8.309-4.174-11.308s-6.286-4.687-10.059-4.692zM79.585 25.841c-1.613 0.001-3.195-0.499-4.571-1.445s-2.493-2.301-3.227-3.916c-0.734-1.615-1.058-3.426-0.934-5.234s0.689-3.543 1.634-5.012 2.233-2.617 3.722-3.315c1.489-0.699 3.12-0.921 4.714-0.643s3.089 1.046 4.319 2.218c1.23 1.173 2.149 2.705 2.654 4.427h-8.31v6.158h8.31c-0.578 1.965-1.692 3.676-3.184 4.89s-3.285 1.869-5.126 1.872z"></path>
</symbol>
<symbol id="icon-Vector" viewBox="0 0 44 32">
<path d="M0.668 30.054v-2.667h42.667v2.667h-42.667zM0.668 17.334v-2.667h42.667v2.667h-42.667zM0.668 4.614v-2.667h42.667v2.667h-42.667z"></path>
</symbol>
<symbol id="icon-cloud-download" viewBox="0 0 32 32">
<path fill="#fff" style="fill: var(--color1, #fff)" d="M24.972 12.288c-0.364-4.631-4.249-8.288-8.972-8.288-4.040 0-7.508 2.624-8.627 6.451-3.192 1.108-5.373 4.132-5.373 7.549 0 4.411 3.589 8 8 8h13c3.86 0 7-3.14 7-7 0-3.149-2.070-5.852-5.028-6.712zM20.707 17.707l-4 4c-0.195 0.195-0.451 0.293-0.707 0.293s-0.512-0.098-0.707-0.293l-4-4c-0.286-0.286-0.372-0.716-0.217-1.090s0.52-0.617 0.924-0.617h2v-4c0-1.104 0.896-2 2-2s2 0.896 2 2v4h2c0.404 0 0.769 0.244 0.924 0.617s0.069 0.804-0.217 1.090z"></path>
</symbol>
<symbol id="icon-tg" viewBox="0 0 32 32">
<path fill="#fff" style="fill: var(--color1, #fff)" d="M3.781 15.508l5.837 2.371 2.259 7.906c0.145 0.506 0.714 0.694 1.091 0.358l3.254-2.886c0.341-0.302 0.827-0.317 1.183-0.036l5.869 4.636c0.404 0.319 0.976 0.079 1.078-0.453l4.299-22.501c0.111-0.58-0.413-1.064-0.921-0.851l-23.956 10.056c-0.591 0.248-0.586 1.159 0.007 1.401zM11.513 16.617l11.408-7.645c0.205-0.137 0.416 0.165 0.24 0.342l-9.415 9.523c-0.331 0.335-0.544 0.784-0.605 1.271l-0.321 2.586c-0.042 0.345-0.488 0.38-0.576 0.045l-1.233-4.716c-0.141-0.538 0.065-1.112 0.502-1.406z"></path>
</symbol>
</defs>
</svg>
